<?xml version="1.0" standalone="no"?>
<!DOCTYPE svg PUBLIC "-//W3C//DTD SVG 20010904//EN"
 "http://www.w3.org/TR/2001/REC-SVG-20010904/DTD/svg10.dtd">
<svg version="1.0" xmlns="http://www.w3.org/2000/svg"
 width="282.000000pt" height="179.000000pt" viewBox="0 0 282.000000 179.000000"
 preserveAspectRatio="xMidYMid meet">
<metadata>
Created by potrace 1.10, written by Peter Selinger 2001-2011
</metadata>
<g transform="translate(0.000000,179.000000) scale(0.100000,-0.100000)"
fill="#000000" stroke="none">
<path d="M1170 1743 c-54 -6 -129 -33 -179 -65 -55 -34 -140 -126 -141 -150 0
-10 -4 -18 -9 -18 -10 0 -61 -111 -60 -131 0 -14 4 -7 41 79 10 23 22 42 27
42 4 0 13 11 19 24 46 103 223 206 352 206 80 0 214 -43 282 -91 34 -25 38
-24 25 5 -7 13 -15 22 -19 20 -4 -3 -42 11 -83 30 -68 32 -167 58 -204 54 -9
0 -32 -3 -51 -5z"/>
<path d="M758 1323 c-6 -23 15 -161 30 -193 10 -24 11 -24 11 -3 1 12 -4 23
-10 25 -6 2 -11 40 -12 96 -2 86 -9 114 -19 75z"/>
<path d="M1385 1221 c-3 -5 9 -12 27 -14 29 -3 28 -4 -9 -5 -24 -1 -43 2 -43
7 0 17 -84 6 -108 -14 -27 -24 -29 -38 -2 -30 11 4 20 2 20 -4 0 -6 -9 -11
-21 -11 -11 0 -17 -4 -14 -10 3 -5 -3 -10 -15 -10 -12 0 -18 -4 -15 -10 3 -5
1 -10 -4 -10 -17 0 -13 -37 5 -44 22 -9 26 -8 22 6 -3 7 3 20 11 29 41 43 131
60 181 34 17 -9 34 -14 37 -11 11 10 -66 36 -109 37 l-43 1 50 15 c38 12 59
13 88 6 20 -6 37 -6 37 -2 0 5 -4 9 -10 9 -5 0 -19 9 -30 20 -21 21 -45 26
-55 11z"/>
<path d="M938 1156 c-7 -6 -30 -11 -51 -10 -34 3 -38 1 -35 -19 2 -14 9 -20
18 -18 8 2 44 5 80 7 36 1 54 0 40 -2 -38 -8 -86 -32 -101 -51 -11 -13 -5 -12
22 5 20 12 52 22 71 22 46 0 101 -27 94 -47 -4 -9 -1 -13 6 -10 7 2 14 10 14
18 3 32 5 33 14 19 8 -12 10 -11 10 7 0 15 -5 20 -18 16 -10 -2 -29 6 -42 18
-59 51 -101 67 -122 45z"/>
<path d="M1707 1145 c-8 -8 -18 -11 -22 -7 -5 4 -5 1 -1 -6 9 -15 -10 -41 -39
-52 -19 -8 -19 -9 -1 -9 17 -1 18 -7 12 -78 -3 -44 -11 -80 -19 -85 -9 -6 -8
-11 4 -23 15 -15 18 -14 38 11 21 26 28 50 14 41 -5 -3 -9 30 -11 73 -3 75 -2
80 25 104 45 42 75 35 106 -23 30 -55 32 -73 13 -116 l-14 -30 -7 53 c-4 28
-11 52 -16 52 -14 0 -11 -30 7 -77 19 -48 13 -88 -14 -95 -11 -3 -22 -15 -25
-28 -5 -21 -5 -21 14 -4 28 26 34 10 10 -25 -13 -17 -36 -34 -54 -39 -34 -9
-49 -44 -28 -65 8 -8 11 -4 11 14 0 30 50 55 70 35 8 -8 10 -7 5 7 -4 9 -3 17
3 17 13 0 24 34 31 88 0 7 6 10 12 6 8 -5 9 -2 1 11 -7 14 -5 34 9 74 16 46
17 61 8 90 -9 26 -9 36 0 39 6 2 8 8 5 13 -3 6 -12 5 -21 -3 -14 -11 -15 -10
-9 9 4 12 2 24 -3 28 -7 4 -8 -1 -4 -12 5 -15 2 -14 -19 5 -28 25 -70 29 -91
7z"/>
<path d="M1739 1083 c-27 -47 -31 -81 -13 -108 19 -30 39 -34 24 -5 -6 11 -7
20 -3 20 4 0 2 4 -5 9 -20 12 -4 61 20 61 15 0 18 5 14 16 -6 15 -4 15 10 3
16 -13 16 -12 5 9 -16 30 -33 28 -52 -5z"/>
<path d="M798 1082 c-3 -12 -1 -23 6 -25 6 -2 2 -12 -12 -23 -13 -10 -23 -28
-22 -39 3 -159 7 -216 18 -227 7 -7 12 -20 12 -29 0 -10 6 -19 13 -22 10 -4
10 -7 0 -18 -17 -18 -16 -30 2 -23 22 9 55 -53 55 -103 0 -23 4 -44 9 -47 5
-3 7 -15 4 -26 -3 -12 0 -20 7 -20 9 0 11 11 6 38 -3 20 -9 63 -12 94 -5 42
-11 59 -24 63 -20 6 -66 136 -56 160 3 8 1 36 -3 63 -10 50 -6 66 9 42 6 -8
10 -10 10 -4 0 6 -9 19 -19 28 -21 19 -18 46 5 46 22 0 26 23 11 59 -12 29
-15 31 -19 13z"/>
<path d="M1325 1088 c-28 -15 -65 -50 -65 -61 0 -5 6 -5 13 2 10 8 17 7 25 -1
8 -8 9 -6 6 9 -8 30 15 39 33 14 19 -29 57 -24 61 7 4 25 8 27 26 9 11 -11 10
-18 -8 -39 -11 -14 -30 -28 -41 -31 -15 -3 -13 -5 8 -6 32 -1 77 25 77 45 0 8
10 19 23 24 22 9 22 9 0 9 -12 1 -23 5 -25 9 -1 5 -25 12 -51 15 -28 4 -46 3
-42 -2 3 -5 0 -13 -6 -17 -7 -4 -9 -3 -5 4 10 16 -7 22 -29 10z"/>
<path d="M909 1018 c-28 -17 -40 -48 -19 -48 6 0 10 -8 10 -18 0 -9 9 -23 20
-30 11 -7 20 -8 20 -3 0 4 12 7 28 4 25 -3 26 -3 5 6 -13 6 -23 15 -23 21 0 5
-7 10 -15 10 -9 0 -15 9 -15 24 0 30 26 42 33 15 7 -27 53 -26 62 2 7 19 8 20
26 3 11 -9 22 -15 25 -12 3 3 -7 15 -22 27 -33 26 -91 26 -135 -1z"/>
<path d="M2051 989 c-17 -17 -28 -36 -24 -42 4 -7 10 0 16 16 5 15 15 27 23
27 8 0 14 4 14 9 0 5 10 12 23 14 22 4 22 4 0 6 -12 0 -35 -12 -52 -30z"/>
<path d="M1093 968 c1 -32 -4 -49 -13 -43 -18 11 -24 -45 -7 -63 9 -9 19 -13
23 -9 11 11 17 127 6 127 -5 0 -10 -6 -9 -12z"/>
<path d="M1604 865 c-3 -8 -3 -19 1 -25 11 -18 25 -11 25 15 0 27 -17 34 -26
10z"/>
<path d="M1290 823 c0 -17 -4 -35 -10 -38 -18 -11 -11 -23 10 -18 22 6 27 46
10 73 -7 11 -10 7 -10 -17z"/>
<path d="M1580 815 c-13 -33 -13 -38 0 -30 18 11 31 43 20 50 -6 3 -15 -6 -20
-20z"/>
<path d="M830 818 c0 -24 12 -58 20 -58 13 0 6 63 -7 68 -7 2 -13 -2 -13 -10z"/>
<path d="M1204 811 c-18 -11 -35 -24 -38 -30 -11 -18 -48 -12 -73 11 -17 16
-28 19 -42 12 -18 -8 -19 -12 -6 -41 9 -20 21 -33 32 -33 15 0 14 4 -7 20 -14
10 -22 22 -18 25 9 9 68 -23 75 -41 3 -9 9 -12 12 -7 3 5 17 14 31 21 64 32
105 58 105 67 0 18 -39 16 -71 -4z"/>
<path d="M1409 737 c17 -21 43 -135 37 -165 -3 -15 -2 -33 3 -40 5 -9 10 1 14
30 8 55 -32 188 -56 188 -5 0 -5 -6 2 -13z"/>
<path d="M993 590 c0 -47 2 -66 4 -42 2 23 2 61 0 85 -2 23 -4 4 -4 -43z"/>
<path d="M1130 640 c0 -5 7 -10 15 -10 20 0 19 -10 -2 -26 -23 -17 -36 -18
-28 -1 4 6 1 5 -7 -3 -7 -8 -19 -15 -27 -15 -7 0 -20 -10 -29 -23 -15 -22 -14
-22 12 -12 15 5 35 14 45 19 18 10 54 16 190 31 130 15 123 23 -22 24 -58 1
-76 -2 -72 -11 2 -7 -2 -13 -11 -13 -8 0 -18 8 -21 18 -10 27 -43 44 -43 22z"/>
<path d="M1271 543 c-17 -12 -46 -17 -106 -17 -46 -1 -81 -4 -78 -8 2 -5 11
-8 19 -8 8 0 14 -6 14 -13 0 -11 17 -13 77 -9 78 5 88 9 111 50 15 27 -1 29
-37 5z"/>
<path d="M1602 459 c-12 -15 -18 -30 -13 -33 10 -6 44 40 39 53 -2 4 -13 -5
-26 -20z"/>
<path d="M908 457 c-4 -21 -1 -27 11 -27 10 0 22 -5 29 -12 8 -8 12 -8 12 -1
0 6 -7 13 -15 17 -9 3 -19 16 -24 28 -8 21 -8 21 -13 -5z"/>
<path d="M1750 416 c18 -17 71 -49 120 -72 41 -19 134 -32 110 -15 -8 6 -27
11 -42 11 -16 0 -37 9 -48 20 -12 12 -25 18 -31 14 -6 -3 -18 0 -27 8 -22 17
-78 48 -88 48 -5 0 -2 -6 6 -14z"/>
<path d="M1550 380 c-21 -30 -19 -41 3 -17 28 29 39 47 29 47 -6 0 -20 -13
-32 -30z"/>
<path d="M1730 371 c0 -27 32 -123 58 -173 17 -33 20 -35 25 -17 3 12 3 18 -1
15 -6 -7 -47 93 -62 152 -10 41 -20 53 -20 23z"/>
<path d="M1000 365 c0 -9 34 -48 95 -110 33 -34 76 -80 95 -102 54 -62 116
-86 219 -84 47 1 87 4 90 6 2 3 -23 5 -57 5 -70 0 -162 17 -162 31 0 5 -6 9
-13 9 -7 0 -20 9 -30 20 -9 11 -24 20 -32 20 -8 0 -15 4 -15 8 0 4 -17 25 -37
46 -34 35 -36 39 -20 51 24 17 22 20 -25 36 -24 7 -55 26 -70 41 -24 26 -38
34 -38 23z"/>
<path d="M1280 310 c0 -5 20 -10 45 -10 25 0 45 5 45 10 0 6 -20 10 -45 10
-25 0 -45 -4 -45 -10z"/>
<path d="M1005 280 c2 -18 8 -36 12 -39 19 -14 30 -91 20 -131 -9 -31 -8 -43
2 -52 11 -11 13 -8 8 18 -3 17 0 42 8 56 7 15 9 30 5 35 -4 4 -13 30 -19 57
-7 27 -18 58 -26 69 -14 20 -14 19 -10 -13z"/>
<path d="M1972 213 c-29 -54 -71 -122 -92 -151 -45 -58 -46 -62 -26 -62 8 0
25 15 38 33 21 30 27 38 53 70 6 7 11 19 13 27 2 8 9 20 15 25 7 6 11 21 9 34
-2 13 1 21 6 17 12 -7 45 66 40 89 -2 10 -24 -22 -56 -82z"/>
</g>
</svg>
