<?xml version="1.0" standalone="no"?>
<!DOCTYPE svg PUBLIC "-//W3C//DTD SVG 20010904//EN"
 "http://www.w3.org/TR/2001/REC-SVG-20010904/DTD/svg10.dtd">
<svg version="1.0" xmlns="http://www.w3.org/2000/svg"
 width="300.000000pt" height="410.000000pt" viewBox="0 0 300.000000 410.000000"
 preserveAspectRatio="xMidYMid meet">
<metadata>
Created by potrace 1.10, written by Peter Selinger 2001-2011
</metadata>
<g transform="translate(0.000000,410.000000) scale(0.100000,-0.100000)"
fill="#000000" stroke="none">
<path d="M1273 3920 c-10 -11 -29 -20 -44 -20 -42 0 -79 -35 -79 -76 0 -19 -4
-34 -10 -34 -5 0 -10 -8 -10 -17 -1 -14 -5 -12 -23 10 -13 15 -30 27 -40 27
-9 0 -17 5 -17 10 0 16 -26 11 -43 -8 -23 -25 -21 -64 4 -91 18 -19 19 -25 8
-32 -8 -5 -22 -9 -33 -9 -12 0 -16 -5 -12 -15 3 -8 1 -15 -4 -15 -6 0 -10 -4
-10 -10 0 -19 16 -10 62 34 45 42 46 44 24 50 -25 6 -44 38 -27 44 6 2 9 8 6
12 -3 5 0 12 7 16 7 4 10 4 6 0 -3 -4 2 -16 13 -27 24 -24 28 -24 22 1 -3 12
0 20 7 20 9 0 11 -11 7 -35 -4 -26 -2 -35 8 -35 8 0 18 6 22 14 26 44 102 114
131 121 38 8 45 -10 7 -19 -29 -7 -75 -48 -75 -66 0 -9 4 -9 13 -2 29 24 90
52 112 52 13 0 40 -14 60 -31 39 -34 48 -33 13 2 -19 18 -20 21 -5 15 27 -9
75 -17 57 -9 -8 3 -20 13 -26 21 -7 9 -19 13 -33 9 -14 -3 -24 1 -31 11 -6 11
-9 12 -10 4 0 -7 -4 -10 -10 -7 -17 11 -11 24 15 31 14 3 25 10 25 15 0 5 12
9 26 9 14 0 23 4 19 10 -12 20 -57 10 -86 -19 -16 -16 -31 -25 -35 -20 -7 12
-55 11 -74 0 -8 -6 -18 -7 -24 -4 -13 8 22 21 58 22 16 1 26 4 23 8 -12 11 24
42 41 36 10 -4 13 -2 8 5 -10 17 -24 15 -43 -8z"/>
<path d="M1469 3884 c-8 -10 -24 -14 -45 -12 -18 2 -30 0 -28 -4 3 -4 -7 -8
-22 -8 -46 0 -18 -13 32 -15 39 -1 52 -7 75 -33 16 -18 31 -32 33 -32 2 0 0
16 -4 35 -5 20 -4 33 1 29 5 -3 9 -12 9 -20 0 -8 4 -13 10 -9 5 3 7 12 4 19
-4 9 5 15 28 19 41 6 42 5 18 -21 -11 -11 -16 -23 -11 -26 5 -3 14 1 21 9 7 8
9 15 5 15 -4 0 -2 7 5 15 10 12 16 13 24 5 8 -8 6 -15 -6 -24 -10 -8 -14 -17
-8 -25 11 -18 30 -5 30 20 0 12 5 19 13 16 6 -2 11 -14 9 -27 -2 -19 0 -21 13
-10 12 10 15 10 15 -4 0 -10 4 -14 10 -11 11 7 47 -10 76 -37 15 -13 24 -16
29 -8 7 11 -12 41 -24 37 -3 -1 -20 10 -36 26 -16 15 -25 27 -20 27 20 0 -37
32 -91 50 -42 15 -60 17 -70 9 -10 -8 -22 -8 -45 0 -39 14 -34 14 -50 -5z"/>
<path d="M1799 3862 c38 -19 73 -76 75 -123 1 -16 6 -33 12 -37 13 -8 24 -72
12 -72 -4 0 -8 8 -8 18 0 10 -6 26 -12 35 -11 15 -13 9 -13 -35 0 -29 4 -58 8
-65 4 -7 0 -16 -10 -22 -15 -9 -15 -10 -2 -11 20 0 44 44 34 61 -5 7 -4 10 2
6 6 -4 14 1 17 10 6 15 8 15 17 3 7 -11 8 -5 3 20 -3 19 -10 37 -15 38 -5 2
-9 8 -9 13 0 6 5 7 10 4 6 -3 10 -5 10 -3 -1 11 -31 101 -40 118 -18 33 -21
19 -5 -25 8 -22 14 -51 14 -65 0 -14 -9 3 -18 38 -21 72 -53 112 -90 112 -25
0 -24 -1 8 -18z"/>
<path d="M1745 3853 c37 -19 65 -43 65 -55 0 -5 -16 0 -36 12 -19 12 -38 20
-40 17 -3 -3 13 -15 35 -27 23 -11 47 -32 53 -45 12 -27 38 -41 38 -20 0 7
-11 22 -25 33 -13 11 -22 22 -19 25 10 9 -25 53 -52 65 -38 18 -54 14 -19 -5z"/>
<path d="M1586 3800 c-6 -17 -2 -67 6 -75 3 -3 8 6 10 20 3 14 1 25 -6 25 -7
0 -7 3 1 8 8 5 9 13 3 22 -8 13 -10 13 -14 0z"/>
<path d="M942 3758 c-7 -7 -12 -20 -12 -30 0 -10 -4 -18 -10 -18 -5 0 -10 -5
-10 -12 0 -6 -6 -19 -14 -27 -20 -22 -31 -71 -17 -71 6 0 11 -5 11 -11 0 -6
-7 -8 -16 -5 -8 3 -12 2 -9 -4 3 -6 10 -10 14 -10 10 0 61 76 61 90 0 17 26
40 36 32 5 -4 1 2 -9 14 -20 24 -22 41 -5 46 8 3 8 7 2 11 -6 3 -16 1 -22 -5z"/>
<path d="M1710 3755 c0 -9 13 -39 30 -68 16 -29 30 -48 30 -43 0 6 7 1 15 -10
14 -18 15 -17 9 11 -7 33 -24 59 -32 50 -10 -10 -32 18 -32 41 0 12 -4 26 -10
29 -5 3 -10 -1 -10 -10z"/>
<path d="M1940 3741 c5 -11 14 -37 19 -58 8 -33 9 -34 10 -10 1 26 -23 87 -35
87 -2 0 0 -9 6 -19z"/>
<path d="M1960 3758 c0 -3 7 -19 15 -34 8 -16 15 -38 15 -49 0 -11 5 -27 10
-35 14 -22 13 17 -1 61 -10 30 -39 73 -39 57z"/>
<path d="M1182 3735 c-18 -8 -35 -14 -38 -14 -3 0 -9 -2 -12 -6 -11 -11 60 6
88 21 33 18 4 17 -38 -1z"/>
<path d="M1510 3709 c0 -23 -3 -30 -9 -20 -5 7 -13 11 -19 7 -6 -3 -13 -2 -17
4 -3 5 -11 10 -17 10 -6 0 -6 -6 2 -15 7 -9 18 -14 24 -12 15 5 36 -18 35 -40
0 -10 -3 -13 -6 -5 -2 7 -14 17 -26 23 -22 12 -22 11 1 -13 37 -41 51 -33 47
30 -4 61 -15 84 -15 31z"/>
<path d="M1614 3727 c-11 -19 -6 -87 6 -87 11 0 17 40 10 75 -5 26 -7 28 -16
12z"/>
<path d="M1690 3711 c0 -18 -4 -30 -9 -27 -5 3 -12 -1 -15 -10 -3 -8 -2 -13 2
-10 4 2 14 1 22 -5 9 -5 10 -9 3 -9 -6 0 -10 -7 -9 -15 3 -22 12 -27 14 -7 4
32 1 106 -4 111 -2 2 -4 -10 -4 -28z"/>
<path d="M1800 3715 c0 -4 7 -19 15 -35 16 -31 32 -42 21 -15 -3 8 -1 15 5 15
6 0 6 7 -1 20 -9 18 -40 29 -40 15z"/>
<path d="M1400 3685 c0 -9 -4 -13 -10 -10 -5 3 -10 1 -10 -5 0 -7 7 -10 15 -6
10 3 15 -1 15 -12 0 -9 4 -24 10 -32 6 -10 8 -4 7 21 -2 37 -27 77 -27 44z"/>
<path d="M1579 3673 c-3 -18 -1 -38 5 -44 8 -9 7 -10 -3 -4 -11 6 -13 4 -7
-11 6 -15 5 -17 -5 -6 -7 6 -17 12 -22 12 -5 0 -1 -7 8 -17 11 -10 15 -27 13
-45 -4 -26 -4 -27 14 -11 19 17 26 49 8 38 -6 -4 -6 4 1 18 8 17 8 37 2 64
l-9 38 -5 -32z"/>
<path d="M1315 3645 c22 -13 47 -24 55 -24 8 0 5 4 -7 9 -13 5 -23 14 -23 20
0 6 -4 9 -9 5 -5 -3 -12 -1 -16 5 -3 5 -14 10 -23 10 -10 0 0 -11 23 -25z"/>
<path d="M1720 3630 c0 -24 -4 -30 -21 -30 -19 0 -20 -2 -8 -17 10 -11 10 -14
2 -9 -7 4 -13 2 -13 -3 0 -6 -4 -11 -9 -11 -5 0 -7 9 -4 20 3 12 0 20 -6 20
-7 0 -10 -4 -7 -9 3 -5 -1 -11 -9 -15 -18 -6 -29 10 -21 31 5 13 4 14 -9 3
-11 -9 -12 -16 -4 -26 6 -7 8 -18 5 -23 -4 -5 -2 -12 3 -15 5 -4 12 -2 16 3 4
7 15 7 31 1 22 -9 27 -6 44 23 10 17 23 37 27 42 11 12 5 45 -8 45 -5 0 -9
-13 -9 -30z"/>
<path d="M1170 3644 c0 -20 45 -52 73 -52 27 0 27 1 7 15 -11 8 -30 16 -42 18
-12 3 -25 10 -30 17 -4 7 -8 8 -8 2z"/>
<path d="M1235 3641 c3 -6 11 -11 16 -11 5 0 32 -22 59 -50 27 -27 43 -50 35
-50 -8 0 -20 10 -26 23 -16 29 -32 39 -41 24 -11 -17 -10 -27 3 -27 5 0 7 5 4
10 -3 6 -2 10 3 10 13 0 22 -39 11 -46 -5 -3 -9 -1 -9 4 0 15 -32 19 -69 10
-31 -9 -32 -10 -15 -23 14 -10 15 -14 5 -15 -8 0 -12 -3 -8 -6 3 -3 11 -3 17
1 8 5 8 11 -1 21 -9 11 -8 14 2 14 29 0 59 -13 53 -22 -4 -5 7 -3 23 6 19 9
34 11 40 5 6 -6 16 -4 29 6 18 14 17 16 -26 56 -42 39 -120 83 -105 60z"/>
<path d="M837 3622 c-21 -23 -21 -36 -2 -52 20 -16 19 -29 -2 -37 -38 -13 -74
-45 -69 -60 5 -12 -1 -14 -33 -10 -21 2 -44 8 -51 12 -9 5 -11 4 -6 -3 11 -18
-5 -14 -27 6 -14 12 -19 13 -15 3 6 -19 67 -51 98 -51 20 0 22 2 10 10 -12 8
-11 10 6 10 28 0 35 -9 23 -29 -5 -9 -14 -29 -20 -46 -6 -16 -13 -25 -16 -18
-2 7 -11 9 -19 6 -19 -7 1 -33 26 -33 34 0 53 -35 46 -85 -7 -47 0 -77 14 -55
4 6 7 -1 8 -17 0 -15 6 -66 12 -113 6 -47 14 -107 17 -135 3 -27 12 -59 19
-70 6 -11 12 -40 12 -65 0 -25 3 -54 7 -65 4 -11 9 -26 11 -33 2 -7 8 -11 12
-8 10 6 9 15 20 -144 5 -69 17 -150 26 -181 19 -64 77 -166 106 -186 11 -8 20
-21 20 -30 0 -29 -83 -99 -131 -111 -24 -6 -125 -46 -224 -88 -99 -42 -223
-93 -275 -113 -52 -21 -108 -45 -125 -53 -16 -9 -66 -28 -110 -43 -44 -15 -91
-34 -105 -43 -14 -9 -33 -17 -44 -17 -21 -2 -55 -42 -56 -64 0 -12 3 -12 12
-3 7 7 18 12 25 12 6 0 36 14 65 31 29 17 55 31 58 30 9 -2 105 31 116 41 7 5
49 22 95 39 46 17 89 35 95 40 6 5 19 10 30 12 10 2 46 16 79 32 104 48 311
132 346 140 19 4 43 14 54 21 11 8 28 14 39 14 18 0 19 -6 12 -107 -3 -60 -11
-205 -16 -323 -6 -118 -13 -242 -17 -275 -12 -99 -8 -682 5 -765 7 -41 18
-115 26 -165 8 -49 22 -119 31 -155 9 -36 23 -95 30 -133 8 -37 17 -73 21 -79
4 -7 3 -8 -4 -4 -7 4 -12 2 -12 -3 0 -6 12 -11 26 -11 19 0 24 4 20 18 -72
242 -112 501 -123 809 -7 197 14 673 29 673 5 0 7 32 3 73 -5 74 8 298 27 447
15 115 18 171 8 165 -9 -6 -42 29 -38 41 2 5 -7 19 -20 32 -27 27 -31 51 -4
31 15 -13 16 -12 3 3 -7 10 -16 16 -20 13 -7 -4 -21 43 -37 125 -7 38 -15 128
-18 202 0 25 -4 44 -8 41 -5 -2 -8 6 -8 17 0 15 -5 20 -13 17 -11 -4 -14 10
-16 61 -1 37 -6 92 -11 122 -5 30 -12 95 -14 145 -4 68 -10 96 -26 117 -11 15
-20 31 -20 35 0 4 5 1 10 -7 6 -10 10 -11 10 -2 0 6 5 12 10 12 6 0 10 -7 8
-16 -2 -10 3 -19 10 -21 9 -4 10 1 2 22 -6 15 -7 31 -4 37 3 5 -3 4 -15 -4
-31 -19 -49 2 -34 41 9 26 9 28 -11 24 -17 -4 -18 -3 -6 6 8 6 15 27 15 50 0
34 -2 38 -15 28 -22 -18 -29 -30 -23 -41 3 -5 1 -6 -5 -2 -15 9 -16 43 -1 51
5 4 9 19 7 33 -2 17 2 26 9 25 6 -1 15 12 18 29 8 34 20 50 47 61 11 4 18 0
21 -11 2 -9 4 -1 4 20 1 28 -3 37 -19 41 -17 5 -20 12 -16 41 2 20 3 36 3 36
-1 0 -9 -8 -18 -18z"/>
<path d="M1110 3613 c28 -36 68 -47 51 -14 -6 10 -8 21 -5 24 3 3 0 8 -7 13
-8 5 -10 3 -4 -6 6 -10 4 -12 -8 -7 -10 4 -25 10 -34 14 -14 5 -12 0 7 -24z"/>
<path d="M2046 3625 c-22 -8 -42 -13 -45 -12 -8 2 -61 -45 -61 -55 0 -7 38 9
50 22 10 11 56 25 75 24 58 -3 58 -3 45 -19 -11 -13 -8 -15 14 -15 18 0 26 5
24 14 -2 8 6 22 17 30 11 8 17 18 13 22 -5 4 -17 -1 -28 -11 -18 -16 -20 -16
-35 -1 -19 19 -19 19 -69 1z"/>
<path d="M1446 3612 c-4 -7 -5 -16 -2 -21 8 -12 66 -20 66 -9 0 4 -7 8 -16 8
-9 0 -22 7 -29 17 -8 11 -14 13 -19 5z"/>
<path d="M1915 3602 c-10 -10 -5 -53 6 -47 6 4 8 13 5 21 -3 7 0 16 6 20 7 5
8 2 3 -7 -7 -11 -5 -11 11 1 10 8 20 15 22 16 2 1 -8 2 -22 2 -14 0 -28 -3
-31 -6z"/>
<path d="M1028 3593 c-10 -2 -18 -9 -18 -14 0 -14 30 -11 46 6 16 16 9 18 -28
8z"/>
<path d="M1180 3590 c0 -5 4 -10 10 -10 5 0 7 -6 4 -13 -3 -8 -17 -12 -37 -9
-24 3 -39 -3 -60 -22 -15 -14 -39 -29 -52 -32 -14 -3 -25 -10 -25 -16 0 -5 -5
-6 -12 -2 -7 5 -9 2 -6 -7 3 -8 -4 -25 -17 -37 -12 -12 -35 -48 -49 -79 -15
-32 -31 -65 -36 -74 -5 -9 -6 -20 -3 -23 10 -10 43 -7 43 4 0 5 -7 7 -15 4
-19 -8 -18 3 3 43 25 47 110 170 122 178 17 11 24 -3 11 -19 -10 -11 -9 -14 1
-12 7 1 19 5 27 10 12 8 11 11 -4 22 -16 12 -16 13 1 13 32 1 63 7 70 14 4 4
-2 7 -14 7 -12 0 -22 5 -22 11 0 8 13 9 40 5 32 -5 41 -3 49 12 7 14 5 21 -10
30 -11 7 -19 8 -19 2z"/>
<path d="M1365 3591 c-3 -7 0 -8 9 -5 12 5 16 -1 17 -22 1 -16 1 -33 -1 -39
-1 -5 9 -1 21 10 12 11 19 14 15 8 -12 -22 8 -14 22 7 11 18 10 20 -10 21 -13
1 -26 1 -30 0 -5 0 -7 4 -5 11 3 15 -29 23 -38 9z"/>
<path d="M1537 3583 c4 -10 2 -14 -5 -9 -12 7 -42 -31 -41 -54 0 -9 5 -6 12 8
7 15 17 22 28 19 21 -6 33 39 13 47 -9 3 -11 0 -7 -11z"/>
<path d="M1730 3576 c0 -8 -8 -22 -17 -32 -16 -16 -16 -16 5 -10 17 6 21 4 16
-8 -4 -11 0 -16 12 -16 12 0 27 16 41 43 l23 42 -23 -27 c-24 -30 -39 -36 -36
-15 3 23 -1 37 -11 37 -5 0 -10 -6 -10 -14z"/>
<path d="M2165 3551 c-3 -6 -17 -11 -31 -11 -15 0 -23 -4 -19 -10 8 -12 94 -3
110 11 5 6 3 9 -7 9 -9 0 -23 3 -31 6 -8 3 -18 1 -22 -5z"/>
<path d="M1930 3533 c0 -8 14 -13 33 -14 17 -1 43 -4 57 -8 28 -8 60 -3 60 10
0 5 -12 9 -26 9 -14 0 -23 4 -19 9 3 6 -18 9 -50 8 -36 -1 -55 -6 -55 -14z"/>
<path d="M1793 3529 c-9 -9 -8 -15 3 -26 8 -8 12 -19 9 -24 -4 -5 -2 -9 3 -9
5 0 15 -12 22 -27 17 -35 110 -123 129 -123 10 0 7 8 -9 25 -27 29 -21 31 20
10 18 -9 30 -11 30 -5 0 6 -12 16 -27 22 -69 28 -102 46 -96 52 4 3 16 0 27
-7 12 -8 36 -17 54 -20 18 -4 40 -13 48 -21 8 -9 22 -12 32 -9 15 6 15 8 -3
13 -11 3 -40 15 -65 26 -25 12 -58 24 -73 28 -15 3 -25 11 -22 16 3 5 13 6 23
3 14 -5 15 -3 5 7 -10 11 -16 10 -33 -5 -18 -16 -20 -16 -20 -2 0 18 28 36 75
49 25 6 24 7 -10 3 -22 -3 -51 -8 -65 -11 -24 -6 -25 -6 -5 10 17 14 17 15 2
10 -11 -4 -23 0 -30 10 -9 13 -15 14 -24 5z"/>
<path d="M2111 3493 c-7 -14 -12 -15 -24 -5 -12 10 -16 10 -20 -2 -5 -12 3
-14 44 -11 36 2 52 -1 56 -11 7 -20 33 -17 33 4 0 16 -40 42 -66 42 -7 0 -17
-8 -23 -17z"/>
<path d="M1913 3483 c4 -6 19 -13 34 -16 16 -3 37 -9 48 -13 19 -8 19 -7 3 10
-20 19 -96 36 -85 19z"/>
<path d="M2103 3425 c-5 -8 -22 -20 -39 -24 l-29 -9 33 -1 c17 -1 34 -1 37 -1
9 0 42 -35 39 -41 -5 -9 45 -33 52 -26 4 4 1 14 -7 23 -13 16 -12 17 9 12 30
-8 28 -2 -5 17 -21 12 -23 15 -8 13 15 -2 19 2 17 17 -5 25 0 21 -49 30 -32 5
-43 3 -50 -10z m54 -22 c-14 -4 -16 -8 -6 -19 14 -17 -2 -19 -19 -2 -19 19
-14 28 16 27 17 -1 21 -3 9 -6z"/>
<path d="M2100 3334 c0 -4 8 -13 18 -20 11 -9 13 -13 4 -14 -7 0 -10 -5 -6
-12 5 -7 3 -8 -6 -3 -10 6 -12 4 -7 -9 4 -10 7 -19 7 -22 0 -2 7 -1 15 2 8 4
15 1 15 -5 0 -7 -7 -14 -16 -18 -9 -3 -14 -13 -11 -24 3 -11 1 -19 -4 -19 -5
0 -12 12 -15 26 -5 19 -9 22 -15 12 -12 -18 -11 -31 1 -23 16 10 23 -41 10
-79 -13 -41 -36 -53 -50 -25 -6 11 -15 17 -21 14 -5 -4 -10 -1 -10 4 -1 6 -3
16 -4 21 -1 6 -3 16 -4 23 -1 9 -3 9 -10 -1 -11 -19 19 -83 39 -79 9 1 16 -7
18 -19 2 -12 12 -30 23 -40 27 -24 24 -34 -6 -21 -13 7 -30 24 -36 40 -6 15
-15 27 -19 27 -11 0 -34 60 -33 83 1 11 -1 17 -3 14 -3 -3 -26 6 -51 20 -25
13 -47 22 -50 20 -2 -3 5 -8 16 -12 31 -10 25 -26 -6 -20 -25 6 -23 3 12 -19
22 -14 46 -26 54 -26 10 0 11 -3 2 -13 -6 -8 -8 -24 -5 -38 9 -37 6 -307 -4
-366 -5 -29 -6 -53 -3 -53 3 0 7 -36 7 -80 1 -68 -1 -80 -15 -80 -10 0 -12 -3
-6 -8 14 -9 15 -92 2 -92 -5 0 -6 -7 -3 -16 4 -9 2 -22 -4 -29 -6 -7 -10 -17
-9 -21 4 -22 -2 -45 -10 -40 -5 3 -11 -4 -15 -17 -9 -34 -62 -91 -76 -82 -9 5
-11 4 -6 -4 7 -11 -69 -91 -88 -91 -4 0 -17 -12 -28 -26 -16 -20 -23 -23 -29
-12 -5 7 -9 8 -9 2 0 -13 -38 -59 -51 -60 -5 -1 -12 -3 -16 -4 -5 -1 -12 -2
-16 -1 -5 1 -6 -3 -3 -8 3 -5 -1 -14 -9 -21 -11 -9 -15 -9 -15 -1 0 7 -4 9
-10 6 -5 -3 -10 -13 -10 -20 0 -12 6 -12 35 2 19 9 35 21 35 25 0 5 4 7 9 4 4
-3 16 3 26 14 10 11 22 17 26 14 5 -3 9 0 9 5 0 6 7 11 16 11 8 0 12 4 9 10
-3 5 6 12 20 16 13 3 23 10 20 14 -3 4 2 13 10 20 8 7 15 9 15 5 0 -4 12 5 26
21 15 16 48 52 74 79 76 81 109 165 110 283 0 17 9 26 30 34 28 9 68 63 56 75
-2 3 -12 -9 -20 -25 -14 -26 -51 -51 -61 -40 -2 1 -4 37 -6 78 -1 51 4 94 17
135 14 47 19 54 22 35 8 -51 20 -40 20 17 -1 32 2 74 5 93 6 32 5 32 -2 5 l-9
-30 -2 30 c-1 17 -3 39 -6 50 -6 33 7 109 17 94 5 -8 9 -28 9 -45 0 -18 6 -46
14 -64 10 -26 14 -29 20 -15 5 14 9 15 21 5 7 -6 16 -21 19 -33 2 -12 3 19 2
68 -2 57 2 105 10 131 9 28 11 50 5 72 -6 20 -6 32 0 32 5 0 9 -9 9 -21 0 -11
5 -17 10 -14 6 3 10 23 10 43 1 33 2 35 14 20 19 -26 29 -22 14 5 -7 12 -13
29 -14 37 -3 33 -34 90 -48 90 -9 0 -16 -3 -16 -6z m-112 -259 c15 -32 15 -65
1 -65 -5 0 -8 4 -5 9 3 5 -1 11 -9 14 -9 4 -13 18 -12 37 2 37 10 38 25 5z
m77 -85 c-3 -5 -2 -10 3 -10 5 0 12 -9 15 -20 3 -11 4 -20 2 -20 -2 0 -11 -3
-19 -6 -12 -4 -15 -2 -10 9 3 9 1 25 -6 36 -9 17 -8 21 5 21 9 0 13 -4 10 -10z
m-74 -100 c5 0 9 -15 9 -32 l-1 -33 -14 40 c-8 22 -14 45 -14 50 1 6 3 2 6 -7
2 -10 9 -18 14 -18z"/>
<path d="M1986 3315 c-3 -8 -14 -12 -26 -10 -24 5 -18 -10 12 -26 18 -10 20
-9 15 5 -3 8 -2 18 3 21 6 4 10 2 10 -3 0 -5 6 -9 13 -10 6 0 21 -2 31 -4 10
-2 21 3 23 10 3 7 -4 12 -17 12 -12 0 -30 4 -40 10 -13 7 -19 6 -24 -5z"/>
<path d="M1830 3301 c0 -4 22 -15 49 -25 52 -18 105 -59 99 -76 -2 -6 -15 1
-31 15 -15 14 -27 21 -27 16 0 -11 48 -51 61 -51 5 0 9 9 9 21 0 14 5 19 13
16 19 -7 43 8 28 17 -6 4 -11 2 -11 -4 0 -7 -5 -8 -12 -3 -7 4 -15 8 -18 8 -3
1 -23 10 -45 22 -62 32 -115 53 -115 44z"/>
<path d="M2000 3194 c0 -3 8 -13 18 -22 9 -9 16 -15 14 -13 -1 2 5 12 13 21
14 16 13 17 -15 18 -16 0 -30 -1 -30 -4z"/>
<path d="M1615 3058 c-11 -7 -33 -13 -50 -14 -16 -1 -30 -3 -30 -4 0 -1 -8 -3
-17 -5 -10 -2 -30 -13 -45 -25 l-27 -21 65 6 c82 7 75 7 139 1 32 -2 60 0 68
6 9 8 16 8 24 0 7 -7 18 -12 26 -12 12 0 12 3 2 15 -7 8 -22 15 -34 15 -12 0
-27 5 -32 10 -7 7 -23 4 -50 -9 -39 -19 -54 -19 -54 0 0 6 4 8 9 5 13 -8 42 4
35 15 -3 5 0 9 5 9 6 0 11 5 11 10 0 13 -20 12 -45 -2z"/>
<path d="M1030 3038 c0 -7 4 -18 8 -23 10 -14 93 -46 103 -39 12 7 80 -30 103
-55 23 -25 20 -26 -27 -6 -50 21 -71 17 -25 -4 56 -26 76 -48 70 -76 -2 -14 0
-25 4 -25 10 0 16 -74 8 -108 -3 -14 -10 -22 -17 -19 -15 6 -36 -56 -32 -93 1
-14 3 -31 4 -39 1 -9 10 -12 26 -9 14 3 25 1 25 -4 0 -5 5 -6 10 -3 6 3 10 0
10 -8 0 -20 29 -30 46 -16 16 13 32 4 45 -25 7 -17 8 -15 6 14 -1 19 -9 40
-17 47 -18 15 -33 17 -25 3 14 -23 -36 -8 -51 15 -18 28 -50 35 -40 9 4 -10 1
-14 -6 -12 -7 3 -14 14 -16 24 -4 25 19 84 25 66 3 -6 9 -10 14 -6 5 3 9 1 9
-5 0 -5 -5 -13 -10 -16 -13 -8 -3 -25 14 -25 9 0 12 9 9 24 -3 13 0 34 7 46 9
17 9 21 0 15 -9 -6 -10 -1 -4 16 4 13 7 31 6 39 0 8 -3 48 -6 88 -3 41 -12 82
-19 93 -22 30 -159 126 -142 99 4 -6 -1 -10 -9 -10 -9 0 -16 5 -16 10 0 6 -12
10 -26 10 -14 0 -34 5 -45 10 -14 8 -19 7 -19 -2z"/>
<path d="M978 3022 c-17 -3 -31 -29 -23 -42 3 -4 14 -6 25 -3 11 3 17 9 15 14
-3 4 -13 5 -22 2 -11 -4 -14 -3 -9 5 4 7 18 10 31 8 14 -3 27 -1 30 4 6 9 -23
17 -47 12z"/>
<path d="M1485 2918 c-21 -16 -25 -17 -25 -4 0 23 -18 20 -25 -5 -8 -23 11
-51 23 -34 12 17 64 55 76 55 6 0 -3 -9 -20 -19 -41 -25 -48 -36 -23 -38 10
-1 19 4 19 12 0 12 21 25 40 25 4 0 10 -9 13 -20 7 -26 42 -26 60 0 13 18 16
19 27 5 7 -8 19 -15 27 -15 8 0 12 -4 9 -8 -3 -5 0 -9 7 -9 7 0 22 -3 35 -7
13 -5 22 -3 22 3 0 6 -7 11 -15 11 -8 0 -19 9 -25 20 -16 31 -46 42 -126 45
-61 3 -78 0 -99 -17z"/>
<path d="M1029 2891 c-18 -18 -37 -27 -46 -24 -12 5 -12 2 2 -15 10 -11 23
-18 30 -16 6 3 17 -6 25 -20 7 -15 23 -26 39 -28 29 -3 129 17 139 28 4 4 -4
4 -18 0 -125 -33 -185 -7 -131 56 19 22 31 23 31 4 0 -8 5 -18 11 -21 16 -11
59 4 59 20 0 21 12 19 39 -6 12 -12 25 -19 28 -16 18 18 -55 57 -107 57 -17 0
-45 -7 -63 -15 l-32 -16 24 21 c13 11 18 20 12 20 -6 0 -25 -13 -42 -29z"/>
<path d="M1476 2841 c-18 -7 -18 -8 5 -24 35 -25 179 -21 179 5 0 5 -15 6 -34
3 -29 -6 -65 0 -116 18 -8 3 -24 2 -34 -2z"/>
<path d="M2070 2772 c0 -54 -4 -67 -26 -89 -30 -30 -27 -39 7 -21 16 9 23 20
21 33 -2 15 -1 16 6 7 7 -11 10 -10 16 3 9 25 7 32 -5 15 -7 -11 -8 -2 -3 32
3 27 2 54 -5 65 -8 14 -10 5 -11 -45z"/>
<path d="M1889 2778 c0 -13 -2 -36 -3 -51 -1 -16 2 -31 6 -33 4 -3 8 20 8 50
0 53 -9 81 -11 34z"/>
<path d="M1491 2653 c55 -47 85 -76 114 -116 15 -21 43 -44 61 -52 36 -15 50
-47 39 -87 -5 -20 -4 -21 5 -5 6 9 10 32 8 49 -2 27 2 35 25 46 26 13 37 32
17 32 -5 0 -10 -4 -10 -9 0 -17 -31 -21 -58 -7 -28 15 -92 74 -92 85 0 3 -18
17 -40 31 -22 14 -40 28 -40 32 0 5 -7 8 -15 8 -8 0 -15 5 -15 10 0 6 -7 10
-16 10 -10 0 -4 -10 17 -27z"/>
<path d="M1407 2583 c-14 -14 -6 -19 23 -15 21 3 32 0 36 -12 5 -12 10 -13 25
-5 22 11 26 31 5 23 -8 -3 -17 -1 -21 5 -7 12 -58 15 -68 4z"/>
<path d="M1802 2538 c-7 -7 -11 -32 -11 -57 l2 -46 7 40 c4 22 10 48 15 58 8
20 4 22 -13 5z"/>
<path d="M1010 2497 c0 -9 5 -17 10 -17 6 0 10 -11 10 -25 0 -28 15 -34 24 -9
3 9 -5 26 -19 42 -20 22 -25 23 -25 9z"/>
<path d="M1169 2413 c-1 -5 -1 -11 0 -15 0 -5 -2 -8 -6 -8 -5 0 -9 -11 -9 -25
-2 -19 1 -23 10 -15 7 5 16 7 19 3 8 -7 22 -9 157 -19 52 -4 92 -3 88 1 -5 5
-37 9 -72 10 -35 2 -69 6 -75 10 -22 13 0 23 52 24 28 0 69 2 90 5 47 6 70 -2
63 -21 -4 -10 -1 -11 14 -3 31 17 127 12 157 -7 26 -17 27 -17 20 0 -4 10 -7
22 -7 26 0 4 -19 8 -42 9 -24 2 -70 7 -103 12 -108 17 -223 12 -278 -12 -48
-21 -50 -21 -63 -3 -7 10 -11 22 -8 26 3 5 3 9 0 9 -3 0 -7 -3 -7 -7z"/>
<path d="M1847 2373 c10 -3 9 -11 -2 -34 -16 -30 -11 -36 15 -19 13 9 13 10 0
10 -13 0 -13 2 -1 9 16 10 8 41 -11 40 -10 0 -10 -2 -1 -6z"/>
<path d="M1030 2357 c0 -23 32 -93 37 -80 2 6 -3 25 -11 41 -8 16 -13 32 -10
35 3 3 1 8 -5 12 -6 3 -11 0 -11 -8z"/>
<path d="M1200 2301 c1 -11 58 -69 78 -80 31 -16 35 1 7 25 -15 12 -26 25 -26
28 4 29 -1 35 -29 34 -16 -1 -30 -4 -30 -7z"/>
<path d="M1946 2294 c-3 -8 -2 -14 3 -14 10 0 31 -69 31 -103 0 -32 -54 -139
-90 -177 -16 -17 -25 -30 -22 -30 3 0 -2 -6 -11 -12 -9 -7 -25 -29 -36 -48
-18 -35 -125 -128 -148 -129 -6 -1 -13 -11 -15 -23 -2 -15 -14 -27 -33 -33
-32 -11 -45 -35 -19 -35 8 0 13 4 10 9 -3 5 1 11 9 15 12 4 14 -4 11 -43 -3
-43 0 -53 25 -80 19 -21 26 -37 21 -49 -14 -33 -67 -101 -80 -102 -7 0 -16 -8
-19 -17 -8 -22 -66 -72 -75 -67 -5 3 -8 11 -8 17 0 7 4 6 10 -3 5 -8 10 -10
10 -4 0 7 -12 19 -26 29 -17 11 -23 12 -18 4 5 -8 14 -29 19 -48 l10 -34 105
104 c58 57 108 103 111 102 18 -5 -7 40 -34 63 -24 20 -31 35 -34 72 -5 62 10
87 82 137 65 46 181 187 235 286 32 61 40 129 19 187 -12 34 -34 48 -43 26z"/>
<path d="M1076 2273 c-4 -11 4 -31 24 -57 17 -23 38 -58 47 -79 10 -22 19 -33
23 -27 8 12 -33 103 -59 134 -9 10 -15 20 -13 22 1 2 2 9 2 14 0 16 -17 11
-24 -7z"/>
<path d="M1394 2273 c-9 -15 -15 -16 -38 -5 -22 10 -27 10 -24 0 3 -7 15 -15
28 -18 l24 -6 -24 -17 c-13 -9 -21 -19 -17 -23 3 -3 13 1 22 10 9 9 21 16 26
16 5 0 8 3 7 8 -1 4 3 17 10 30 15 26 2 30 -14 5z"/>
<path d="M2010 2285 c0 -3 7 -17 17 -31 38 -58 29 -257 -29 -634 -10 -69 -20
-138 -23 -155 -60 -466 -160 -918 -287 -1303 -28 -84 -48 -155 -45 -159 10
-10 37 6 37 21 0 8 5 27 12 43 6 15 12 33 13 38 2 6 14 44 28 86 13 42 33 108
43 148 10 39 22 71 27 71 4 0 6 4 3 8 -3 5 2 31 10 58 14 45 25 100 27 132 0
6 4 12 8 12 4 0 9 15 11 33 3 17 19 93 36 167 17 74 33 152 36 174 4 21 9 42
12 47 3 5 7 26 9 46 2 21 6 49 9 63 4 14 9 43 11 65 3 22 8 54 12 70 10 50 14
77 20 145 2 36 9 70 15 77 5 7 7 16 5 21 -3 4 1 42 8 82 8 41 19 121 26 178 6
56 15 102 21 102 5 0 5 6 0 17 -6 9 -6 29 -1 46 4 16 7 69 6 119 l-3 90 22
-28 c13 -15 21 -31 18 -36 -3 -4 2 -8 11 -8 8 0 18 -7 21 -15 3 -8 26 -25 51
-37 25 -13 48 -28 50 -35 3 -7 9 -11 13 -8 15 10 39 -25 56 -83 10 -31 21 -61
25 -66 7 -8 -6 44 -29 121 -10 32 -10 32 11 19 12 -8 65 -26 117 -41 90 -26
113 -34 185 -65 17 -7 35 -14 40 -16 36 -8 105 -46 100 -54 -4 -6 1 -7 11 -3
13 5 15 3 9 -7 -5 -8 -4 -11 3 -6 6 3 45 -12 88 -34 75 -38 114 -49 114 -32 0
11 -248 139 -350 181 -41 17 -141 50 -221 74 -84 25 -160 54 -179 68 -67 51
-138 121 -170 168 -29 42 -70 81 -70 66z"/>
<path d="M1415 2260 c-3 -5 -4 -10 0 -10 3 0 1 -9 -5 -20 -10 -18 -9 -20 7
-11 19 10 54 24 65 25 3 1 10 5 15 10 4 5 -6 5 -24 1 -21 -4 -33 -3 -33 4 0
14 -17 14 -25 1z"/>
<path d="M1107 2134 c-8 -8 2 -54 14 -70 5 -6 15 -29 23 -51 8 -22 29 -72 47
-111 30 -63 37 -72 61 -72 36 0 78 -17 105 -42 13 -12 25 -19 28 -16 3 2 -8
17 -25 31 -16 15 -30 24 -30 21 0 -4 -6 -2 -12 3 -7 6 -26 13 -42 17 -46 11
-61 36 -70 119 -1 15 -12 37 -23 50 -21 24 -57 78 -59 90 -1 4 -3 10 -4 15 -1
4 -2 10 -1 15 1 9 -4 9 -12 1z"/>
<path d="M1178 2099 c-3 -8 1 -20 8 -27 8 -7 14 -10 14 -5 0 4 6 -1 13 -11 8
-11 19 -15 30 -10 18 7 23 24 7 24 -5 0 -10 -5 -10 -11 0 -5 -5 -7 -10 -4 -8
5 -7 12 2 23 10 15 10 15 -2 4 -12 -10 -17 -9 -31 9 -12 16 -17 18 -21 8z"/>
<path d="M1585 2060 c-9 -15 -115 -61 -126 -55 -5 4 -9 2 -9 -4 0 -6 19 -9 44
-8 24 1 42 5 39 10 -2 4 1 7 7 7 6 0 21 9 32 20 16 15 24 17 29 8 5 -8 7 -4 6
10 -1 23 -12 29 -22 12z"/>
<path d="M1289 2027 c6 -8 8 -17 4 -20 -3 -4 -1 -7 5 -7 7 0 12 5 12 10 0 6 7
10 15 10 8 0 15 5 15 10 0 14 -13 13 -28 -2 -9 -9 -12 -9 -12 0 0 7 -5 12 -11
12 -8 0 -9 -4 0 -13z"/>
<path d="M1380 2011 c0 -7 -6 -11 -13 -8 -8 3 -14 -1 -14 -8 0 -10 5 -11 19
-4 12 6 18 6 18 -1 0 -5 11 -10 25 -10 14 0 25 5 25 11 0 6 -8 8 -19 4 -13 -4
-23 0 -30 12 -7 12 -10 13 -11 4z"/>
<path d="M1121 1804 c-26 -22 -31 -32 -30 -67 1 -28 3 -33 6 -17 9 51 83 100
83 55 0 -7 7 -16 16 -19 12 -4 10 1 -6 23 -19 28 -20 30 -3 40 16 9 14 10 -9
11 -14 0 -40 -12 -57 -26z"/>
<path d="M1814 1788 c47 -32 80 -65 93 -93 49 -102 67 -119 38 -34 -17 51 -86
123 -125 133 -23 6 -23 5 -6 -6z"/>
<path d="M734 1643 c-3 -16 -12 -54 -20 -86 -8 -32 -14 -70 -14 -83 0 -14 -4
-33 -9 -42 -5 -9 -12 -44 -15 -77 l-6 -60 20 75 c10 41 19 88 20 103 0 16 5
37 11 48 5 11 12 39 15 62 2 23 7 52 9 65 3 12 3 22 0 22 -2 0 -7 -12 -11 -27z"/>
<path d="M47 1563 c-7 -13 24 -283 48 -423 8 -47 15 -97 15 -112 0 -15 4 -29
8 -32 11 -6 -3 130 -32 309 -13 83 -25 175 -25 205 -2 55 -5 68 -14 53z"/>
<path d="M1362 1513 c15 -17 24 -33 78 -139 14 -27 29 -52 33 -55 4 -3 5 -14
2 -25 -6 -17 -5 -17 5 -2 7 11 7 24 2 35 -5 10 -17 34 -26 53 -36 78 -83 150
-98 150 -7 0 -5 -7 4 -17z"/>
<path d="M660 1266 c0 -7 -3 -35 -6 -62 -4 -27 -4 -46 0 -43 9 8 20 119 12
119 -3 0 -6 -6 -6 -14z"/>
<path d="M2990 1130 c0 -10 -4 -29 -9 -42 -6 -13 -19 -54 -30 -93 -11 -38 -34
-115 -50 -171 -17 -55 -31 -107 -30 -115 1 -21 14 15 44 116 14 50 37 125 51
168 26 85 40 157 30 157 -3 0 -6 -9 -6 -20z"/>
<path d="M1347 1045 c-12 -41 -36 -203 -42 -290 -3 -49 -15 -162 -25 -250 -22
-188 -36 -505 -22 -505 5 0 12 86 15 198 6 225 52 689 79 799 10 43 6 85 -5
48z"/>
<path d="M611 689 c-1 -35 1 -60 4 -58 6 7 9 108 3 114 -3 3 -6 -22 -7 -56z"/>
</g>
</svg>
