<?xml version="1.0" standalone="no"?>
<!DOCTYPE svg PUBLIC "-//W3C//DTD SVG 20010904//EN"
 "http://www.w3.org/TR/2001/REC-SVG-20010904/DTD/svg10.dtd">
<svg version="1.0" xmlns="http://www.w3.org/2000/svg"
 width="225.000000pt" height="225.000000pt" viewBox="0 0 225.000000 225.000000"
 preserveAspectRatio="xMidYMid meet">
<metadata>
Created by potrace 1.10, written by Peter Selinger 2001-2011
</metadata>
<g transform="translate(0.000000,225.000000) scale(0.100000,-0.100000)"
fill="#000000" stroke="none">
<path d="M1310 2240 c0 -4 8 -11 17 -14 15 -6 15 -8 3 -17 -12 -8 -9 -9 10 -7
16 2 24 -2 22 -10 -2 -10 2 -10 19 -1 17 9 24 8 38 -7 15 -17 15 -17 -2 -5
-20 16 -32 9 -23 -14 3 -9 14 -15 23 -14 32 3 44 -1 38 -11 -3 -5 -2 -10 3
-10 5 0 15 -27 22 -60 7 -33 16 -60 20 -60 5 0 3 -16 -3 -36 -8 -28 -8 -37 2
-43 18 -12 1 -20 -36 -17 -17 1 -30 -1 -27 -5 2 -4 -2 -10 -8 -13 -7 -3 5 -3
27 0 73 11 76 15 71 102 -2 42 -5 84 -5 93 -1 22 -58 80 -111 114 -47 30 -100
49 -100 35z"/>
<path d="M1105 1925 c59 -17 75 -18 75 -6 0 6 -8 9 -17 9 -10 0 -38 2 -63 6
l-45 6 50 -15z"/>
<path d="M986 1900 c-5 -28 -9 -32 -17 -20 -9 12 -9 11 -4 -5 4 -11 11 -34 16
-52 6 -18 15 -35 21 -39 7 -5 9 -2 6 7 -3 8 -9 22 -13 32 -4 10 -3 17 4 17 9
0 9 5 1 21 -11 19 -10 20 10 9 24 -13 42 -4 20 10 -8 5 -11 12 -8 16 4 3 14 0
22 -8 8 -9 11 -19 6 -24 -5 -5 -12 -26 -15 -46 -7 -34 -5 -39 20 -48 14 -5 39
-10 54 -10 24 0 29 5 40 49 8 32 21 55 37 65 23 16 24 15 30 -11 12 -58 26
-92 40 -103 11 -10 14 -9 14 3 0 9 -4 19 -10 22 -5 3 -10 14 -10 23 0 12 3 13
11 5 17 -17 38 -5 32 18 -6 22 -14 24 -31 7 -20 -20 -13 1 9 26 23 26 65 29
79 6 6 -10 9 -9 13 1 3 8 6 0 6 -16 1 -18 9 -35 20 -42 17 -11 19 -8 23 23 3
23 0 34 -9 34 -7 0 -13 7 -13 15 0 12 -17 15 -91 15 -50 0 -99 -5 -110 -10
-15 -8 -23 -7 -35 5 -11 10 -35 15 -84 15 -45 0 -70 4 -72 12 -3 7 -8 -3 -12
-22z m104 -49 c0 -6 -4 -12 -10 -16 -5 -3 -6 -13 -3 -21 4 -11 9 -12 16 -5 19
19 39 13 35 -11 -3 -20 -8 -23 -43 -20 -22 2 -41 5 -43 7 -7 6 28 75 37 75 6
0 11 -4 11 -9z"/>
<path d="M1485 1884 l-30 -13 34 -1 c20 0 39 -7 48 -17 7 -10 12 -13 11 -6 -2
6 2 13 7 15 14 4 19 -82 5 -96 -8 -8 -9 -7 -5 6 8 20 -28 63 -44 53 -16 -9
-13 -25 4 -25 8 0 15 -3 16 -7 0 -5 2 -18 4 -29 3 -12 -4 -32 -15 -44 -19 -22
-21 -22 -39 -6 -12 11 -21 13 -25 7 -4 -6 1 -15 11 -22 14 -8 18 -23 16 -70 0
-33 -4 -67 -7 -75 -3 -8 -3 -28 1 -44 4 -24 10 -29 24 -25 28 9 24 -19 -3 -32
-13 -6 -43 -29 -68 -50 -67 -59 -149 -109 -210 -127 -29 -9 -57 -16 -61 -16
-4 0 -10 18 -14 40 -4 22 -8 40 -10 40 -2 0 -41 -36 -87 -81 -46 -44 -93 -90
-106 -101 -33 -32 -108 -175 -122 -236 -7 -30 -10 -72 -7 -94 3 -23 0 -53 -8
-72 -7 -17 -17 -60 -21 -93 -5 -53 -3 -68 16 -105 12 -24 35 -57 51 -74 16
-17 27 -32 25 -35 -2 -2 -6 -17 -9 -34 -3 -16 -12 -50 -21 -74 -11 -30 -16
-77 -15 -155 1 -128 12 -179 24 -104 4 25 4 55 0 67 -4 14 -2 21 6 21 10 0 10
3 1 12 -19 19 -15 114 8 160 35 73 35 97 -2 153 -67 103 -74 140 -43 233 9 28
15 61 12 72 -5 19 -1 42 18 95 6 16 5 17 -4 5 -10 -12 -11 -11 -9 10 2 14 9
25 18 25 17 0 35 23 26 32 -3 4 -6 1 -6 -5 0 -7 -4 -12 -10 -12 -5 0 -10 7
-10 15 0 8 4 15 9 15 5 0 17 22 26 49 9 27 27 61 41 76 13 14 22 31 19 36 -4
5 -1 9 5 9 16 0 76 51 73 62 -2 4 2 7 9 6 6 -2 17 8 25 22 7 14 13 21 13 17 0
-4 6 -2 14 5 8 7 11 18 8 23 -2 6 1 5 8 -2 11 -10 11 -15 -1 -29 -13 -16 -12
-16 8 -4 19 12 24 12 43 -5 16 -15 25 -16 43 -7 12 6 35 13 50 17 15 3 25 10
22 15 -4 6 1 7 11 3 10 -4 22 0 30 11 6 10 18 16 26 15 26 -3 36 2 72 36 21
19 45 35 54 35 14 0 14 2 3 9 -11 7 -9 14 14 35 30 28 45 33 45 15 0 -6 7 -9
15 -5 8 3 15 1 15 -4 0 -6 -4 -10 -9 -10 -5 0 -12 -8 -16 -17 -4 -13 -3 -15 5
-7 21 21 140 -52 140 -86 0 -7 10 -21 22 -32 19 -16 20 -21 8 -28 -11 -7 -17
-4 -22 8 -7 14 -7 14 -5 -3 3 -27 37 -32 44 -7 3 13 10 19 20 15 8 -3 13 -14
10 -24 -3 -12 0 -19 10 -19 8 0 11 5 7 12 -4 7 -3 8 5 4 6 -4 9 -12 5 -17 -3
-5 11 -25 32 -44 21 -19 33 -35 27 -35 -6 0 -9 -9 -6 -21 4 -16 8 -17 14 -7 7
10 9 9 9 -5 0 -10 4 -16 9 -13 5 3 11 -1 15 -9 3 -8 0 -15 -7 -15 -7 0 -5 -5
5 -10 10 -6 19 -30 23 -61 5 -35 10 -47 16 -38 5 9 9 10 9 2 0 -6 3 -20 6 -30
5 -15 4 -16 -6 -3 -10 13 -11 12 -4 -5 19 -53 32 -142 26 -174 -7 -34 -10 -36
-50 -38 -23 -1 -44 2 -47 6 -2 5 -28 4 -57 -1 -29 -5 -69 -8 -89 -6 -21 2 -36
0 -33 -3 4 -7 -47 -22 -131 -38 -28 -5 -58 -13 -68 -16 -14 -6 -17 -1 -17 30
0 23 -4 34 -11 30 -6 -4 -8 -23 -4 -49 5 -32 4 -38 -5 -26 -9 12 -11 4 -7 -33
3 -36 1 -49 -11 -56 -13 -7 -12 -10 6 -20 28 -15 28 -31 0 -31 l-21 0 22 -19
c16 -14 22 -31 23 -60 0 -23 5 -41 10 -41 6 0 8 -8 5 -19 -2 -11 3 -25 14 -35
18 -15 27 -42 11 -32 -5 3 -8 -5 -8 -17 1 -17 -17 -32 -79 -68 -44 -25 -86
-44 -94 -41 -8 3 -12 1 -9 -4 6 -10 -10 -27 -31 -32 -7 -1 -21 -11 -33 -21
-20 -19 -77 -42 -153 -63 -45 -12 -69 -28 -41 -28 55 0 197 54 244 93 8 6 57
36 109 66 53 31 105 68 116 83 l19 26 -26 54 c-14 29 -30 76 -36 104 -13 60
-9 189 5 190 24 1 108 18 201 40 107 25 202 31 235 14 22 -12 25 -40 7 -58 -8
-8 -14 -47 -15 -100 -1 -48 -4 -98 -6 -112 -2 -14 -5 -56 -5 -93 -1 -38 -5
-66 -9 -64 -5 3 -9 -11 -9 -31 -1 -21 -4 -48 -7 -62 -19 -96 -27 -153 -23
-157 7 -7 13 12 19 57 3 19 12 60 21 90 15 50 25 143 45 395 3 50 11 99 18
110 6 11 16 45 22 76 11 50 9 68 -12 160 -14 57 -34 128 -45 157 -37 95 -121
204 -222 287 -44 37 -134 122 -156 148 -15 18 -34 107 -34 161 0 34 4 45 18
48 21 6 82 119 82 152 0 12 -6 30 -13 40 -12 16 -17 17 -37 6 -14 -7 -25 -8
-29 -3 -4 6 -18 5 -36 -3z"/>
<path d="M1310 1862 c0 -18 12 -42 21 -42 13 0 4 43 -9 48 -7 2 -12 -1 -12 -6z"/>
<path d="M1193 1753 c-20 -8 -15 -23 7 -23 17 0 19 -5 14 -24 -4 -19 -1 -26
18 -31 12 -4 33 -17 45 -28 13 -11 26 -17 30 -13 11 11 -10 38 -42 56 -34 19
-44 40 -19 40 16 0 16 1 -2 15 -20 15 -31 17 -51 8z"/>
<path d="M1000 1718 c1 -61 52 -174 72 -162 7 4 6 9 -2 14 -10 6 -10 8 0 12 9
3 4 13 -13 32 -16 17 -29 45 -33 72 -3 24 -10 44 -15 44 -5 0 -9 -6 -9 -12z"/>
<path d="M1150 1711 c0 -6 -13 -18 -30 -28 -19 -11 -30 -25 -30 -40 0 -31 16
-29 24 2 6 25 45 43 65 30 6 -3 11 2 11 13 0 11 -7 23 -16 26 -21 8 -24 8 -24
-3z"/>
<path d="M1420 1678 c0 -4 4 -8 9 -8 18 0 4 -54 -17 -68 -11 -7 -18 -20 -15
-28 7 -18 23 -18 23 0 0 8 4 16 10 18 5 2 14 24 18 50 8 42 7 46 -9 45 -11 -1
-19 -5 -19 -9z"/>
<path d="M1160 1649 c0 -4 -9 -5 -20 -2 -11 3 -20 1 -20 -5 0 -9 149 -23 159
-15 9 7 -10 16 -38 17 -16 1 -27 4 -25 8 2 4 -9 6 -26 6 -16 -1 -30 -4 -30 -9z"/>
<path d="M1225 1600 c-3 -5 -19 -10 -36 -10 -34 0 -37 -10 -9 -28 16 -10 25
-10 43 -1 12 7 24 12 27 11 3 -1 6 7 6 18 1 21 -20 28 -31 10z"/>
<path d="M1090 1573 c0 -11 -5 -24 -10 -29 -12 -12 18 -47 60 -69 35 -18 128
-24 138 -9 4 6 17 14 30 18 26 9 29 26 4 26 -10 0 -23 5 -30 12 -6 6 -15 9
-19 5 -3 -4 2 -14 13 -23 18 -14 17 -15 -13 -9 -17 3 -34 2 -37 -4 -10 -16
-35 -1 -29 17 3 13 2 14 -4 4 -6 -7 -17 -10 -28 -6 -14 6 -16 4 -10 -7 5 -8
-5 -1 -23 16 -20 19 -30 36 -27 47 3 9 1 19 -5 23 -5 3 -10 -2 -10 -12z"/>
<path d="M1361 1558 c-1 -19 -6 -28 -18 -28 -12 0 -14 -3 -7 -10 8 -8 19 -7
37 1 29 13 36 29 13 29 -8 0 -17 8 -19 18 -3 10 -5 6 -6 -10z"/>
<path d="M1272 1451 c-12 -7 27 -26 97 -46 39 -12 15 12 -27 26 -20 6 -42 15
-47 20 -6 4 -16 4 -23 0z"/>
<path d="M1213 1408 c-21 -7 -33 -17 -33 -29 0 -28 17 -31 24 -4 4 16 13 25
26 25 10 0 22 5 25 10 7 12 1 11 -42 -2z"/>
<path d="M1358 863 c4 -23 42 -86 42 -71 0 8 -41 98 -44 98 -2 0 -1 -12 2 -27z"/>
<path d="M1840 638 c0 -19 -2 -20 -10 -8 -8 12 -10 9 -10 -12 0 -16 -4 -28 -8
-28 -4 0 -8 -9 -9 -20 -3 -31 14 -14 42 41 21 39 22 49 10 49 -9 0 -15 -9 -15
-22z"/>
<path d="M1620 603 c0 -10 -3 -28 -6 -40 -5 -19 -3 -23 17 -22 16 1 18 3 7 6
-13 3 -15 12 -11 39 3 19 3 34 -1 34 -3 0 -6 -8 -6 -17z"/>
<path d="M1582 573 c-23 -26 -30 -63 -11 -63 6 0 8 7 5 17 -4 10 2 25 15 40
13 12 20 25 18 27 -2 3 -14 -7 -27 -21z"/>
<path d="M1707 493 c-21 -41 -15 -56 12 -27 12 12 16 27 12 40 -5 20 -8 19
-24 -13z"/>
<path d="M1700 424 c-6 -14 -10 -49 -9 -77 l1 -52 13 43 c20 63 27 112 15 112
-6 0 -15 -12 -20 -26z"/>
<path d="M1614 414 c3 -7 0 -15 -7 -17 -7 -2 -9 -8 -5 -12 7 -7 57 24 58 36 0
4 -12 7 -26 7 -17 0 -23 -5 -20 -14z"/>
<path d="M776 195 c-15 -16 -26 -32 -26 -38 0 -16 -60 -69 -73 -64 -7 2 -17
14 -23 26 -13 25 -27 25 -29 0 -1 -9 14 -25 34 -35 20 -11 50 -34 67 -51 24
-25 40 -33 68 -33 20 0 36 5 36 11 0 5 -4 7 -10 4 -5 -3 -10 -1 -10 4 0 6 -7
11 -16 11 -8 0 -12 -4 -9 -10 15 -25 -24 -7 -43 20 l-22 29 46 72 c48 75 52
100 10 54z"/>
<path d="M590 170 c-8 -5 -18 -6 -22 -4 -5 3 -8 2 -6 -3 1 -4 -4 -27 -11 -51
-13 -48 -11 -108 4 -105 5 2 10 27 11 56 2 65 16 94 46 99 18 2 20 5 7 10 -9
3 -22 2 -29 -2z"/>
<path d="M1676 146 c-5 -19 -13 -26 -31 -26 -14 0 -25 -4 -25 -10 0 -5 13 -10
28 -10 33 0 64 42 45 61 -7 7 -12 3 -17 -15z"/>
<path d="M868 41 c-3 -36 -2 -38 27 -39 25 -1 27 1 13 9 -10 6 -18 21 -18 34
0 40 -18 37 -22 -4z"/>
<path d="M1635 70 c-3 -5 -18 -10 -33 -10 -15 -1 -38 -7 -51 -14 -13 -7 -31
-11 -40 -9 -17 4 -130 -22 -140 -33 -10 -10 150 4 194 16 55 16 105 40 105 51
0 12 -27 11 -35 -1z"/>
<path d="M592 25 c2 -19 8 -25 26 -25 23 0 23 0 5 25 -23 31 -33 31 -31 0z"/>
</g>
</svg>
