<?xml version="1.0" standalone="no"?>
<!DOCTYPE svg PUBLIC "-//W3C//DTD SVG 20010904//EN"
 "http://www.w3.org/TR/2001/REC-SVG-20010904/DTD/svg10.dtd">
<svg version="1.0" xmlns="http://www.w3.org/2000/svg"
 width="225.000000pt" height="224.000000pt" viewBox="0 0 225.000000 224.000000"
 preserveAspectRatio="xMidYMid meet">
<metadata>
Created by potrace 1.10, written by Peter Selinger 2001-2011
</metadata>
<g transform="translate(0.000000,224.000000) scale(0.100000,-0.100000)"
fill="#000000" stroke="none">
<path d="M900 2228 c0 -7 14 -27 30 -45 17 -18 30 -37 30 -43 0 -6 3 -9 8 -7
9 4 52 -40 44 -47 -3 -3 2 -6 11 -6 9 0 17 5 17 10 0 6 -4 10 -9 10 -6 0 -18
14 -28 30 -9 17 -22 30 -28 30 -5 0 -16 12 -22 28 -14 31 -53 61 -53 40z"/>
<path d="M343 2216 c-31 -17 -64 -48 -58 -54 2 -3 20 7 39 22 19 14 39 26 45
26 6 0 11 5 11 10 0 12 -9 11 -37 -4z"/>
<path d="M1444 2221 c4 -5 -12 -7 -34 -4 -36 5 -40 4 -33 -13 4 -11 12 -23 19
-29 6 -5 14 -22 18 -36 3 -15 13 -29 21 -33 14 -5 13 -1 -2 25 -14 24 -15 31
-5 38 10 6 8 10 -7 14 -12 3 -21 10 -21 16 0 6 20 2 46 -10 50 -21 114 -33
114 -21 0 7 -70 45 -103 56 -10 3 -16 2 -13 -3z"/>
<path d="M706 2212 c-5 -9 14 -32 54 -65 16 -14 25 -16 33 -8 8 8 8 11 0 11
-6 0 -27 16 -46 35 -20 20 -38 32 -41 27z"/>
<path d="M1273 2189 c3 -9 0 -23 -6 -30 -8 -8 -5 -8 7 1 18 14 19 13 13 -15
-5 -26 -3 -30 17 -30 l23 0 -25 40 c-29 47 -38 57 -29 34z"/>
<path d="M295 2090 c-4 -6 -15 -8 -24 -5 -10 3 -24 -1 -31 -10 -17 -20 -34
-19 -26 3 5 14 4 14 -9 -2 -8 -11 -15 -25 -15 -30 0 -6 5 -4 10 4 11 17 13 10
4 -14 -3 -9 -10 -13 -15 -10 -8 5 -14 -18 -10 -39 1 -5 -7 -20 -18 -35 -31
-44 -81 -163 -81 -193 0 -15 -5 -29 -11 -31 -6 -2 -19 -26 -28 -53 -20 -58
-29 -315 -11 -315 5 0 10 5 10 11 0 6 7 9 15 5 9 -3 15 0 15 9 0 8 5 14 11 13
6 -2 14 3 16 10 3 7 -5 12 -21 12 -32 0 -34 17 -4 30 23 9 23 9 -2 9 l-25 1
30 25 c17 13 37 25 45 26 8 1 -7 5 -34 8 l-48 6 52 43 c31 24 46 42 36 42 -9
0 -24 -9 -33 -20 -10 -11 -23 -20 -30 -20 -37 0 13 41 62 51 30 6 30 6 -5 8
-20 0 -41 -4 -48 -11 -9 -9 -12 -8 -12 4 0 10 14 22 35 29 19 7 35 17 35 21 0
11 -18 10 -42 -3 -11 -6 -23 -8 -26 -4 -7 7 19 25 53 37 14 5 10 7 -13 4 -39
-3 -40 -1 -4 18 15 8 22 15 15 16 -7 0 -10 7 -7 15 4 8 10 13 14 10 4 -3 11 2
14 11 9 23 8 24 -11 17 -12 -4 -9 4 11 25 17 19 26 37 23 47 -10 24 12 62 49
81 31 17 38 41 8 30 -7 -3 -16 -1 -19 4 -4 6 -1 10 5 10 6 0 8 5 4 13 -5 7 0
6 11 -3 17 -14 18 -13 11 5 -4 11 -4 17 -1 14 3 -4 22 9 42 28 21 18 43 31 50
29 7 -3 10 1 6 10 -6 16 -19 18 -28 4z"/>
<path d="M1523 2085 c-14 -15 -7 -22 75 -90 46 -36 63 -45 43 -21 -9 11 -9 15
1 20 7 3 3 3 -10 0 -18 -4 -25 -1 -29 14 -2 11 -15 25 -28 32 -13 7 -21 18
-19 25 8 19 -19 35 -33 20z"/>
<path d="M1050 2054 c0 -4 15 -22 34 -40 19 -18 31 -36 27 -40 -3 -4 0 -4 7 0
9 6 3 18 -25 47 -40 41 -43 43 -43 33z"/>
<path d="M1281 1963 c0 -12 5 -28 12 -35 7 -7 20 -26 30 -41 10 -16 21 -26 25
-22 4 3 1 9 -5 13 -6 4 -13 14 -15 22 -2 8 -11 21 -20 28 -9 7 -19 22 -21 35
-4 22 -4 22 -6 0z"/>
<path d="M226 1925 c-11 -8 -16 -15 -10 -15 5 0 -4 -11 -20 -23 -17 -14 -25
-26 -19 -30 6 -4 22 7 37 23 14 17 23 30 19 30 -4 0 2 7 13 15 10 8 15 14 9
14 -5 0 -19 -6 -29 -14z"/>
<path d="M1558 1783 c6 -3 12 -9 12 -15 0 -5 7 -8 15 -4 8 3 15 1 15 -4 0 -6
5 -10 12 -10 21 0 -15 28 -42 33 -14 2 -19 2 -12 0z"/>
<path d="M1670 1759 c14 -6 50 -13 80 -15 30 -3 62 -7 71 -9 9 -3 16 0 16 7 0
9 -20 14 -61 15 -34 2 -77 5 -96 8 -32 4 -33 4 -10 -6z"/>
<path d="M304 1734 c-18 -15 -18 -15 11 -9 37 8 57 25 29 25 -11 0 -29 -7 -40
-16z"/>
<path d="M148 1684 c10 -5 10 -9 1 -20 -8 -10 -8 -14 0 -14 6 0 11 4 11 9 0 4
12 6 28 3 38 -6 16 14 -23 21 -16 4 -24 4 -17 1z"/>
<path d="M1633 1662 c-7 -12 -8 -24 -1 -36 5 -10 8 -26 5 -37 -5 -20 13 -69
25 -69 4 0 3 11 -1 24 -6 13 -6 40 -1 60 8 36 4 76 -9 76 -3 0 -11 -8 -18 -18z"/>
<path d="M1697 1564 c-4 -23 -4 -57 0 -75 4 -22 3 -30 -5 -25 -12 7 -7 -14 21
-91 16 -44 14 -55 -9 -46 -10 4 -14 -3 -13 -23 0 -25 1 -26 9 -9 5 11 9 14 9
6 1 -11 4 -11 16 -1 9 7 13 15 10 18 -3 3 0 11 6 19 9 9 8 17 0 27 -7 8 -14
47 -17 88 -3 40 -9 91 -13 113 l-7 40 -7 -41z"/>
<path d="M183 1528 c-33 -20 -46 -42 -18 -32 8 4 15 10 15 15 0 5 6 9 14 9 14
0 32 18 25 24 -2 2 -19 -6 -36 -16z"/>
<path d="M321 1489 c-13 -11 -22 -22 -19 -25 8 -7 58 14 58 25 0 19 -15 19
-39 0z"/>
<path d="M1126 1474 c-3 -9 -6 -38 -6 -65 0 -27 -5 -49 -10 -49 -6 0 -5 -8 2
-20 12 -19 21 -20 123 -16 60 3 126 9 145 14 35 9 35 9 -18 13 -30 2 -56 2
-58 0 -2 -2 -44 -6 -93 -8 l-89 -4 4 43 c3 24 7 58 9 76 4 35 1 41 -9 16z"/>
<path d="M1016 1426 c-8 -48 -44 -96 -57 -75 -5 8 -8 8 -13 0 -10 -15 -32 -14
-49 4 -10 9 -26 13 -48 9 -40 -6 -45 -6 -86 2 -17 3 -39 2 -48 -3 -13 -8 -8
-10 20 -11 21 -1 43 -6 49 -12 8 -6 16 -6 23 1 12 12 102 -7 105 -22 0 -5 1
-15 2 -21 1 -7 6 -17 11 -21 6 -5 1 -6 -10 -2 -11 3 -32 9 -47 12 -16 3 -28 9
-28 13 0 4 -9 10 -20 13 -11 3 -20 2 -20 -1 0 -4 -36 -7 -80 -8 -80 -1 -160
-25 -160 -47 0 -5 -11 -7 -25 -5 -13 3 -22 1 -19 -3 3 -5 13 -9 22 -10 14 0
13 -2 -3 -9 -19 -8 -19 -9 -1 -9 11 -1 30 9 43 21 21 20 33 22 108 20 60 -2
84 1 83 9 -2 6 3 14 10 16 6 3 12 -1 12 -9 0 -8 14 -14 38 -15 l37 -2 -34 14
c-56 25 -29 27 30 3 60 -24 73 -36 58 -54 -6 -8 -6 -14 -1 -18 11 -7 22 26 22
69 0 29 20 75 20 47 0 -7 5 -10 11 -6 6 3 15 0 20 -7 4 -7 11 -10 16 -6 4 5 1
12 -6 16 -11 7 -10 16 7 47 25 47 32 78 22 94 -4 7 -10 -7 -14 -34z"/>
<path d="M1584 1446 c-3 -14 -3 -48 0 -78 3 -29 5 -84 6 -122 0 -38 3 -66 7
-62 4 3 6 28 5 54 l-1 47 13 -48 c34 -123 31 -33 -4 137 -6 29 -6 53 -1 60 6
7 4 16 -5 24 -11 10 -15 8 -20 -12z"/>
<path d="M620 1403 l-25 -14 33 5 c17 3 32 2 32 -3 0 -13 51 -20 74 -11 18 6
15 9 -19 15 -22 4 -47 11 -55 15 -9 5 -26 2 -40 -7z"/>
<path d="M1245 1399 c-26 -12 -31 -18 -15 -14 14 2 36 5 50 6 14 0 19 3 12 6
-6 2 -10 9 -6 14 7 11 7 11 -41 -12z"/>
<path d="M1625 1393 c7 -30 13 -39 19 -32 8 8 -6 59 -16 59 -6 0 -7 -11 -3
-27z"/>
<path d="M187 1399 c-9 -5 -22 -7 -27 -4 -6 3 -7 -1 -4 -9 5 -12 -1 -16 -22
-17 -28 -2 -28 -2 -4 -6 14 -3 28 -10 32 -16 4 -6 10 -8 15 -4 4 5 1 12 -6 17
-11 6 -6 13 20 29 34 21 30 30 -4 10z"/>
<path d="M29 1342 c-1 -4 -2 -103 -3 -221 0 -118 0 -207 2 -198 2 9 10 17 18
17 20 0 18 -54 -3 -87 -21 -31 -33 -230 -13 -203 9 12 11 10 7 -12 -2 -15 -1
-30 2 -35 11 -15 54 -48 47 -36 -5 9 1 13 21 13 l28 0 -29 23 c-27 22 -28 27
-22 69 6 37 4 47 -9 52 -9 3 -14 2 -11 -2 2 -4 1 -14 -5 -22 -16 -26 -10 84 6
125 13 29 19 34 30 25 8 -6 11 -18 8 -26 -3 -8 0 -14 6 -14 6 0 8 -7 5 -15 -4
-8 -2 -15 4 -15 5 0 12 7 16 15 3 8 11 15 18 15 9 0 9 -3 2 -8 -17 -11 -26
-45 -14 -52 6 -4 13 -20 16 -36 9 -49 14 -40 14 24 0 33 3 67 6 76 4 10 1 16
-9 16 -22 0 -77 52 -77 73 0 10 -9 36 -21 58 -22 43 -40 198 -20 169 8 -11 9
-5 4 22 -4 29 -2 39 11 44 9 3 16 15 16 26 0 14 -5 18 -15 14 -9 -3 -15 0 -15
9 0 8 5 15 11 15 7 0 8 11 4 30 -6 26 -4 30 16 30 17 0 20 3 12 11 -13 13 -62
21 -64 11z"/>
<path d="M429 1321 c13 -24 56 -55 70 -49 5 1 -11 18 -36 36 -35 27 -42 30
-34 13z"/>
<path d="M1126 1275 c7 -49 12 -55 28 -33 15 21 75 48 108 49 22 0 22 1 3 8
-13 6 -33 2 -57 -10 -42 -21 -52 -23 -43 -9 3 6 -3 10 -14 10 -10 0 -22 6 -25
13 -3 6 -3 -6 0 -28z"/>
<path d="M1743 1288 c14 -40 17 -58 9 -58 -5 0 -12 -13 -15 -30 -7 -30 -31
-41 -40 -17 -3 6 -6 -1 -6 -18 0 -16 4 -37 10 -45 8 -12 9 -10 4 8 -4 13 -2
22 5 22 25 0 60 54 60 94 0 32 -10 56 -22 56 -6 0 -8 -6 -5 -12z"/>
<path d="M1246 1273 c-20 -20 6 -29 105 -37 67 -6 89 -14 89 -32 0 -14 46 -31
57 -20 4 3 -5 6 -18 6 -18 0 -20 3 -10 9 22 14 -34 58 -89 70 -49 11 -124 13
-134 4z"/>
<path d="M1121 1205 c0 -11 6 -29 14 -39 15 -20 15 -20 15 0 0 11 -7 29 -15
40 -14 19 -14 19 -14 -1z"/>
<path d="M159 1184 c-7 -8 -14 -23 -15 -32 -1 -10 -5 -30 -9 -47 -7 -28 -7
-29 10 -13 10 9 18 26 19 39 1 26 26 39 26 13 0 -30 13 -6 15 28 1 18 0 27 -2
20 -4 -9 -9 -10 -18 -2 -9 7 -16 6 -26 -6z"/>
<path d="M825 1193 c-11 -3 -22 -9 -25 -13 -6 -10 -70 -24 -70 -15 0 3 10 10
23 15 16 6 1 9 -53 8 l-75 0 50 -13 50 -12 -35 -11 c-32 -11 -30 -11 25 -6 64
5 112 20 133 41 14 13 11 14 -23 6z"/>
<path d="M1662 1115 c2 -41 4 -75 6 -75 10 0 21 54 13 64 -6 7 -8 29 -4 49 4
25 2 37 -6 37 -8 0 -11 -23 -9 -75z"/>
<path d="M1760 1170 c-1 -8 -2 -23 -1 -32 2 -12 -5 -18 -21 -19 -17 -1 -18 -3
-5 -6 20 -5 20 -5 6 -37 -7 -14 -16 -23 -20 -20 -5 3 -9 0 -9 -6 0 -6 8 -10
17 -8 20 4 45 80 40 118 -2 14 -5 18 -7 10z"/>
<path d="M1275 1164 c66 -14 104 -28 99 -36 -7 -11 47 1 61 13 5 6 -3 7 -21 3
-21 -4 -34 -1 -43 10 -9 11 -29 16 -65 15 -28 -1 -42 -3 -31 -5z"/>
<path d="M1581 1078 c-1 -40 -1 -71 2 -68 8 10 17 140 9 140 -4 0 -9 -33 -11
-72z"/>
<path d="M60 1065 c0 -30 42 -105 59 -105 13 0 13 2 2 9 -7 5 -10 14 -7 20 4
6 1 11 -8 11 -9 0 -17 15 -21 40 -6 38 -25 57 -25 25z"/>
<path d="M200 1012 c0 -45 18 -102 32 -102 5 0 6 10 2 23 -4 12 -7 32 -6 45 1
12 -3 22 -9 22 -8 0 -8 4 -1 13 7 8 6 16 -4 25 -12 11 -14 7 -14 -26z"/>
<path d="M933 997 c10 -38 11 -40 17 -17 8 30 3 47 -15 53 -10 4 -10 -3 -2
-36z"/>
<path d="M1157 1019 c-4 -16 2 -40 18 -72 14 -26 23 -58 21 -71 -3 -19 -1 -23
15 -19 25 7 24 38 -1 70 -11 14 -20 35 -20 47 -1 11 -7 32 -14 45 l-13 23 -6
-23z"/>
<path d="M1651 994 c-5 -19 -7 -42 -5 -49 3 -7 -2 -25 -11 -39 -17 -25 -17
-26 4 -26 12 0 19 4 16 10 -3 5 1 36 10 69 18 69 18 71 5 71 -5 0 -14 -16 -19
-36z"/>
<path d="M885 1000 c-3 -11 -3 -25 1 -31 4 -7 3 -9 -3 -6 -6 4 -21 -9 -34 -27
-13 -19 -27 -32 -31 -30 -4 3 -8 -2 -8 -11 0 -8 -9 -23 -20 -32 -24 -20 -26
-33 -6 -33 8 0 23 11 34 25 11 14 27 25 36 25 9 0 16 6 16 13 0 8 11 35 25 62
13 27 22 52 19 57 -9 14 -22 9 -29 -12z"/>
<path d="M1592 970 c-10 -16 -9 -21 8 -30 17 -9 20 -8 20 14 0 32 -13 40 -28
16z"/>
<path d="M1570 910 c0 -16 4 -30 9 -30 12 0 19 21 13 43 -7 28 -22 20 -22 -13z"/>
<path d="M932 879 c-9 -14 -19 -18 -37 -13 -19 5 -25 2 -25 -10 0 -18 39 -30
77 -23 16 3 37 -2 51 -11 26 -17 73 -23 82 -10 3 4 15 9 25 11 11 1 25 6 32
10 6 4 18 4 27 1 21 -8 20 2 -2 27 -18 19 -19 19 -43 1 -27 -21 -79 -34 -79
-20 0 5 -5 6 -11 3 -6 -4 -20 1 -32 12 -48 42 -52 43 -65 22z"/>
<path d="M1630 852 c0 -7 -7 -12 -15 -12 -8 0 -15 -7 -15 -14 0 -8 -11 -27
-25 -42 -31 -34 -33 -51 -2 -32 25 17 73 96 63 105 -3 4 -6 1 -6 -5z"/>
<path d="M236 841 c-4 -6 -16 -11 -27 -11 -10 0 -19 -4 -19 -10 0 -5 11 -10
24 -10 20 0 23 -4 19 -22 -4 -14 -2 -20 3 -15 5 5 9 12 10 15 0 4 4 15 9 25 9
21 -8 46 -19 28z"/>
<path d="M1530 710 c0 -18 -3 -30 -7 -26 -4 4 -13 -21 -19 -56 -7 -35 -20 -81
-30 -103 -10 -22 -17 -44 -15 -49 1 -4 -5 -13 -12 -20 -8 -6 -22 -31 -31 -55
-18 -46 -56 -102 -56 -82 0 6 -4 11 -10 11 -5 0 -7 -6 -5 -12 4 -9 -9 -14 -41
-15 -51 -2 -66 -10 -45 -23 9 -5 20 -3 28 6 8 8 22 14 31 14 15 0 15 -2 2 -10
-11 -7 -11 -10 -2 -10 7 0 10 -5 7 -11 -4 -6 -13 -8 -21 -5 -18 7 -18 2 0 -13
36 -30 136 111 202 285 31 82 49 183 35 197 -8 8 -11 1 -11 -23z"/>
<path d="M279 687 c-5 -40 6 -124 22 -166 15 -38 21 -18 9 30 -6 24 -14 73
-18 109 -7 59 -9 62 -13 27z"/>
<path d="M182 645 c2 -51 -1 -63 -20 -69 -10 -3 -46 -39 -80 -80 l-62 -74 0
-211 c0 -177 2 -211 14 -211 19 0 28 62 24 160 -5 137 1 252 14 244 7 -5 8 -3
4 5 -9 14 22 53 35 45 5 -3 9 5 9 17 0 18 3 20 12 11 8 -8 8 -15 -1 -25 -11
-14 -8 -158 4 -177 3 -4 7 -25 11 -46 3 -22 9 -43 14 -49 4 -5 10 -23 14 -40
5 -23 4 -27 -5 -15 -9 12 -10 10 -5 -10 3 -14 6 -34 6 -45 0 -16 2 -17 10 -5
14 23 21 7 10 -29 -8 -28 -7 -31 5 -21 12 10 15 9 15 -4 0 -10 8 -16 21 -16
23 0 24 -9 -17 120 -57 181 -68 312 -34 402 21 56 24 100 9 133 -7 17 -8 16
-7 -10z"/>
<path d="M781 624 c-12 -9 -31 -14 -42 -11 -16 4 -18 3 -9 -8 8 -10 7 -15 -2
-19 -7 -3 -2 -2 12 2 45 13 487 9 502 -5 14 -15 28 -17 28 -3 0 11 -31 29 -58
33 -11 2 -28 9 -38 17 -10 8 -15 10 -11 3 11 -18 -113 -23 -135 -5 -11 9 -18
10 -23 3 -6 -11 -173 -10 -192 2 -5 3 -20 -1 -32 -9z"/>
<path d="M224 525 c34 -100 135 -234 243 -323 86 -70 260 -185 274 -180 7 2
-3 15 -22 28 -34 24 -53 43 -77 77 -11 15 -12 15 -8 1 4 -12 1 -15 -10 -11 -8
3 -13 11 -10 19 3 8 -6 15 -25 19 -16 4 -29 13 -29 22 0 8 -6 13 -13 10 -15
-6 -90 47 -80 57 3 3 -3 6 -15 6 -12 0 -22 6 -22 14 0 7 -12 22 -27 31 -41 27
-70 64 -107 137 -19 37 -39 73 -45 80 -7 7 -18 22 -26 33 -13 18 -13 15 -1
-20z"/>
<path d="M850 547 c0 -13 60 -37 94 -37 22 0 21 -18 -1 -22 -10 -2 18 -4 62
-4 44 -1 69 1 55 3 -47 9 -40 19 10 17 41 -2 56 2 80 23 17 14 28 28 25 31 -3
4 -10 0 -15 -8 -7 -12 -34 -15 -130 -14 -77 1 -125 5 -132 12 -16 16 -48 15
-48 -1z"/>
<path d="M1286 208 c-12 -16 -16 -47 -16 -115 0 -86 2 -93 20 -93 17 0 20 8
22 85 l3 85 27 -25 c17 -16 33 -22 44 -18 12 4 15 3 10 -5 -4 -7 -2 -12 5 -12
6 0 18 -8 26 -17 10 -12 12 -13 8 -3 -5 11 -3 11 7 -1 13 -16 80 -50 103 -53
6 -1 27 -9 49 -19 24 -11 61 -17 100 -16 33 1 52 4 41 6 -35 9 -226 83 -269
105 -22 11 -66 43 -97 69 -31 27 -59 49 -62 49 -3 0 -13 -10 -21 -22z"/>
<path d="M1242 193 c-10 -26 -10 -26 -11 -5 -1 30 -17 20 -26 -15 -4 -16 -15
-36 -25 -45 -10 -10 -22 -24 -27 -32 -4 -8 -15 -16 -23 -18 -8 -2 -21 -11 -28
-20 -7 -10 -20 -18 -28 -18 -8 0 -14 -4 -14 -10 0 -13 27 -13 35 0 4 6 10 8
14 5 15 -8 138 121 144 151 7 39 2 42 -11 7z"/>
</g>
</svg>
